<svg width="491" height="59" viewBox="0 0 491 59" fill="none" xmlns="http://www.w3.org/2000/svg">
<g clip-path="url(#clip0_3830_430812)">
<path d="M5.9525 56.9582C3.32116 56.9582 2.00049 55.6632 2.00049 53.0731V5.9795C2.00049 3.36933 3.30115 2.0542 5.91248 2.0542H39.1294C43.0414 2.0542 44.9924 4.01183 44.9924 7.93713V51.0753C44.9924 55.0006 43.0414 56.9582 39.1294 56.9582H5.9525ZM37.1784 45.1924V13.8201C37.1784 11.2099 35.8777 9.89476 33.2664 9.89476H11.7755C10.4748 9.92488 9.82447 10.5774 9.82447 11.8524V21.6606C9.85449 22.9657 10.5148 23.6183 11.8155 23.6183C15.6975 23.6183 17.6384 25.5759 17.6384 29.5012V47.15C17.6384 48.4551 18.2888 49.1076 19.5894 49.1076H33.2664C35.8677 49.1076 37.1784 47.8025 37.1784 45.1823V45.1924Z" fill="#E63520" stroke="#FFED00" stroke-width="2" stroke-miterlimit="10"/>
<path d="M63.0216 2.0542H82.5616C86.4736 2.0542 88.4245 4.01183 88.4245 7.93713V23.6183C92.3365 23.6183 94.2875 25.5759 94.2875 29.5012V53.0329C94.2875 55.6431 92.9869 56.9582 90.3755 56.9582C87.7642 56.9582 86.4635 55.6531 86.4635 53.0329V35.3841C86.4335 32.794 85.1329 31.4889 82.5516 31.4588H70.8256C68.7145 31.6195 67.4138 32.9245 66.9136 35.3841V53.0329C66.9136 55.6431 65.5629 56.9582 62.8515 56.9582H55.1876C52.5863 56.9582 51.2756 55.6531 51.2756 53.0329V29.5012C51.2756 25.5759 53.2266 23.6183 57.1386 23.6183V7.93713C57.1386 4.01183 59.0896 2.0542 63.0016 2.0542H63.0216ZM64.9726 13.8201V21.6205C64.9726 22.9256 65.6229 23.5781 66.9236 23.5781L78.6496 23.6183C79.9502 23.6183 80.6006 22.9657 80.6006 21.6606V13.8201C80.6006 11.2099 79.2999 9.89476 76.6886 9.89476H68.8746C66.2733 9.89476 64.9626 11.1999 64.9626 13.8201H64.9726Z" fill="#E63520" stroke="#FFED00" stroke-width="2" stroke-miterlimit="10"/>
<path d="M120.001 11.8527V21.6609C120.001 22.966 120.651 23.6185 121.952 23.6185C125.864 23.6185 127.815 25.5762 127.815 29.5015V53.0332C127.815 55.6434 126.514 56.9585 123.903 56.9585H116.089C113.487 56.9585 112.177 55.6534 112.177 53.0332V11.8527C112.177 10.5476 111.526 9.89504 110.226 9.89504H98.4996C95.8983 9.89504 94.5876 8.58995 94.5876 5.96974C94.5876 3.34952 95.8883 2.04443 98.4996 2.04443H133.678C136.279 2.04443 137.59 3.34952 137.59 5.96974C137.59 8.58995 136.289 9.89504 133.678 9.89504H121.952C120.651 9.89504 120.001 10.5476 120.001 11.8527V11.8527Z" fill="#E63520" stroke="#FFED00" stroke-width="2" stroke-miterlimit="10"/>
<path d="M155.619 2.0542H175.159C179.071 2.0542 181.022 4.01183 181.022 7.93713V23.6183C184.934 23.6183 186.885 25.5759 186.885 29.5012V53.0329C186.885 55.6431 185.584 56.9582 182.973 56.9582C180.361 56.9582 179.061 55.6531 179.061 53.0329V35.3841C179.031 32.794 177.73 31.4889 175.149 31.4588H163.423C161.312 31.6195 160.011 32.9245 159.511 35.3841V53.0329C159.511 55.6431 158.16 56.9582 155.449 56.9582H147.785C145.183 56.9582 143.873 55.6531 143.873 53.0329V29.5012C143.873 25.5759 145.824 23.6183 149.736 23.6183V7.93713C149.736 4.01183 151.687 2.0542 155.599 2.0542H155.619ZM157.57 13.8201V21.6205C157.57 22.9256 158.22 23.5781 159.521 23.5781L171.247 23.6183C172.547 23.6183 173.198 22.9657 173.198 21.6606V13.8201C173.198 11.2099 171.897 9.89476 169.286 9.89476H161.472C158.87 9.89476 157.56 11.1999 157.56 13.8201H157.57Z" fill="#E63520" stroke="#FFED00" stroke-width="2" stroke-miterlimit="10"/>
<path d="M236.19 29.5012V51.0653C236.19 54.9906 234.249 56.9582 230.367 56.9883L199.061 56.9482C195.149 56.9482 193.198 54.9906 193.198 51.0653V43.2247C193.198 40.6145 194.508 39.2994 197.15 39.2994C199.791 39.2994 201.022 40.6045 201.022 43.2247L201.062 45.1823C201.062 47.7925 202.362 49.1076 204.974 49.1076L218.611 49.1478C219.891 49.1177 220.542 48.4551 220.562 47.15V33.3863C220.402 32.1013 219.751 31.4689 218.611 31.4689H199.071C195.159 31.4689 193.208 29.5112 193.208 25.5859V7.93713C193.238 4.01183 195.189 2.0542 199.071 2.0542H230.337C234.249 2.08432 236.2 4.04195 236.2 7.93713V15.7777C236.2 18.3879 234.899 19.703 232.288 19.703C229.676 19.703 228.376 18.3979 228.376 15.7777V13.8201C228.376 11.2099 227.075 9.89476 224.464 9.89476H204.924C202.372 9.89476 201.082 11.1999 201.052 13.8201L201.012 19.703C201.012 22.3132 202.312 23.6283 204.924 23.6283H230.327C234.239 23.6283 236.19 25.5859 236.19 29.5112V29.5012Z" fill="#E63520" stroke="#FFED00" stroke-width="2" stroke-miterlimit="10"/>
<path d="M248.396 2.01416L273.759 2.05432C276.36 2.05432 277.681 3.3594 277.711 5.97962C277.711 8.58979 276.41 9.90492 273.799 9.90492H254.259C251.628 9.93504 250.307 11.2401 250.307 13.8302V21.6708C250.337 22.9759 250.997 23.6284 252.298 23.6284H273.759C276.36 23.6284 277.681 24.9335 277.711 27.5537C277.711 30.1438 276.39 31.4389 273.759 31.4389L260.082 31.479C258.831 31.479 258.191 32.1416 258.171 33.4768V47.1602C258.171 48.4452 258.811 49.0977 260.082 49.1178H273.759C276.36 49.1178 277.681 50.4229 277.711 53.0431C277.711 55.6533 276.39 56.9684 273.759 56.9684H246.445C243.814 56.9684 242.493 55.6733 242.493 53.0832V7.93725C242.493 3.99187 244.464 2.01416 248.396 2.01416Z" fill="#E63520" stroke="#FFED00" stroke-width="2" stroke-miterlimit="10"/>
<path d="M289.877 2.01416L315.24 2.05432C317.841 2.05432 319.162 3.3594 319.192 5.97962C319.192 8.58979 317.891 9.90492 315.28 9.90492H295.74C293.109 9.93504 291.788 11.2401 291.788 13.8302V21.6708C291.818 22.9759 292.478 23.6284 293.779 23.6284H315.24C317.841 23.6284 319.162 24.9335 319.192 27.5537C319.192 30.1438 317.871 31.4389 315.24 31.4389L301.563 31.479C300.312 31.479 299.672 32.1416 299.652 33.4768V47.1602C299.652 48.4452 300.292 49.0977 301.563 49.1178H315.24C317.841 49.1178 319.162 50.4229 319.192 53.0431C319.192 55.6533 317.871 56.9684 315.24 56.9684H287.926C285.295 56.9684 283.974 55.6733 283.974 53.0832V7.93725C283.974 3.99187 285.945 2.01416 289.877 2.01416Z" fill="#E63520" stroke="#FFED00" stroke-width="2" stroke-miterlimit="10"/>
<path d="M329.407 56.9582C326.776 56.9582 325.455 55.6632 325.455 53.0731V5.9795C325.455 3.36933 326.756 2.0542 329.367 2.0542H362.584C366.496 2.0542 368.447 4.01183 368.447 7.93713V51.0753C368.447 55.0006 366.496 56.9582 362.584 56.9582H329.407ZM360.633 45.1924V13.8201C360.633 11.2099 359.332 9.89476 356.721 9.89476H335.23C333.929 9.92488 333.279 10.5774 333.279 11.8524V21.6606C333.309 22.9657 333.969 23.6183 335.27 23.6183C339.152 23.6183 341.093 25.5759 341.093 29.5012V47.15C341.093 48.4551 341.743 49.1076 343.044 49.1076H356.721C359.322 49.1076 360.633 47.8025 360.633 45.1823V45.1924Z" fill="#E63520" stroke="#FFED00" stroke-width="2" stroke-miterlimit="10"/>
<path d="M378.672 2.0542C381.274 2.0542 382.584 3.35929 382.584 5.9795V21.6606C382.584 22.9657 383.235 23.6183 384.535 23.6183C388.447 23.6183 390.398 25.5759 390.398 29.5012V53.0329C390.398 55.6431 389.098 56.9582 386.486 56.9582H378.672C376.071 56.9582 374.76 55.6531 374.76 53.0329V5.9795C374.76 3.36933 376.061 2.0542 378.672 2.0542Z" fill="#E63520" stroke="#FFED00" stroke-width="2" stroke-miterlimit="10"/>
<path d="M427.968 9.89488H408.468C405.836 9.925 404.516 11.2301 404.516 13.8202V21.6607C404.546 22.9658 405.206 23.6184 406.507 23.6184C410.389 23.6184 412.33 25.576 412.33 29.5013V53.033C412.33 55.6432 411.009 56.9583 408.378 56.9583H400.644C398.012 56.9583 396.692 55.6633 396.692 53.0732V7.93725C396.692 3.99187 398.663 2.01416 402.595 2.01416L433.821 2.05432C437.733 2.05432 439.684 4.01195 439.684 7.93725V53.033C439.684 55.6432 438.383 56.9583 435.772 56.9583C433.16 56.9583 431.86 55.6533 431.86 53.033V13.8202C431.86 11.21 430.559 9.89488 427.948 9.89488H427.968Z" fill="#E63520" stroke="#FFED00" stroke-width="2" stroke-miterlimit="10"/>
<path d="M488.998 51.0753C488.998 55.0006 487.048 56.9582 483.136 56.9582L451.83 56.9984C447.948 56.9683 446.007 55.0006 446.007 51.0753V7.93713C446.007 4.04195 447.958 2.08432 451.87 2.0542H483.136C487.017 2.0542 488.968 4.01183 488.998 7.93713V15.7777C488.998 18.3879 487.698 19.703 485.086 19.703C482.475 19.703 481.174 18.3879 481.174 15.7375L481.134 13.8201C481.104 11.2099 479.814 9.89476 477.262 9.89476H457.723C455.121 9.89476 453.811 11.1999 453.811 13.8201V21.6606C453.811 22.9657 454.471 23.6183 455.802 23.6183C459.714 23.6484 461.665 25.596 461.665 29.461L461.625 47.15C461.655 48.4551 462.305 49.1277 463.576 49.1478L477.212 49.1076C479.814 49.1076 481.124 47.8025 481.124 45.1823L481.165 43.2247V35.3841C481.165 32.774 479.864 31.4588 477.253 31.4588C474.641 31.4588 473.341 30.1537 473.341 27.5335C473.341 24.9133 474.641 23.6082 477.253 23.6082H483.115C487.027 23.6082 488.978 25.5659 488.978 29.4912V51.0552L488.998 51.0753Z" fill="#E63520" stroke="#FFED00" stroke-width="2" stroke-miterlimit="10"/>
<path d="M39.1294 1.0498H5.9125C2.74089 1.0498 1 2.79661 1 5.97902V53.0726C1 56.2249 2.7609 57.9617 5.95252 57.9617H39.1294C43.6217 57.9617 45.9929 55.5824 45.9929 51.0748V7.93665C45.9929 3.42908 43.6217 1.0498 39.1294 1.0498ZM11.8055 22.6139C11.0551 22.6139 10.825 22.393 10.815 21.6601V11.8519C10.815 11.1191 11.0251 10.9082 11.7655 10.8982H33.2564C35.3175 10.8982 36.1679 11.7415 36.1679 13.8196V45.1919C36.1679 47.2599 35.3275 48.1133 33.2564 48.1133H19.5795C18.8291 48.1133 18.629 47.9024 18.629 47.1596V29.5007C18.629 24.9931 16.2678 22.6139 11.8055 22.6139V22.6139Z" stroke="black" stroke-width="2" stroke-miterlimit="10"/>
<path d="M89.4251 22.6645V7.93714C89.4251 3.42957 87.0539 1.05029 82.5616 1.05029H63.0216C58.5294 1.05029 56.1582 3.42957 56.1582 7.93714V22.6645C52.3162 23.0059 50.2952 25.355 50.2952 29.5112V53.043C50.2952 56.2153 52.0361 57.9722 55.2077 57.9722H62.8716C66.1332 57.9722 67.9341 56.2254 67.9341 53.043V35.4946C68.4844 32.9446 69.8951 32.5431 70.8456 32.4728H82.5616C84.5826 32.4929 85.4631 33.3663 85.4831 35.3942V53.043C85.4831 56.2153 87.224 57.9722 90.3956 57.9722C93.5672 57.9722 95.3081 56.2254 95.3081 53.043V29.5012C95.3081 25.345 93.2871 22.9958 89.4451 22.6545L89.4251 22.6645ZM79.6101 13.8201V21.6606C79.6101 22.4136 79.4 22.6144 78.6596 22.6144L66.9336 22.5742C66.1833 22.5742 65.9831 22.3634 65.9831 21.6205V13.8201C65.9831 11.752 66.8236 10.8987 68.8946 10.8987H76.7086C78.7697 10.8987 79.6201 11.742 79.6201 13.8201H79.6101Z" stroke="black" stroke-width="2" stroke-miterlimit="10"/>
<path d="M133.678 1.05008H98.4997C95.338 1.05008 93.5872 2.79689 93.5872 5.97929C93.5872 9.1617 95.328 10.9085 98.4997 10.9085H110.226C110.976 10.9085 111.176 11.1193 111.176 11.8622V53.0327C111.176 56.2051 112.917 57.9619 116.089 57.9619H123.903C127.064 57.9619 128.815 56.2151 128.815 53.0327V29.501C128.815 24.9934 126.444 22.6141 121.952 22.6141C121.201 22.6141 121.001 22.4033 121.001 21.6604V11.8522C121.001 11.0993 121.211 10.8985 121.952 10.8985H133.678C136.839 10.8985 138.59 9.15166 138.59 5.96925C138.59 2.78685 136.849 1.04004 133.678 1.04004V1.05008Z" stroke="black" stroke-width="2" stroke-miterlimit="10"/>
<path d="M182.022 22.6645V7.93714C182.022 3.42957 179.651 1.05029 175.159 1.05029H155.619C151.127 1.05029 148.755 3.42957 148.755 7.93714V22.6645C144.913 23.0059 142.892 25.355 142.892 29.5112V53.043C142.892 56.2153 144.633 57.9722 147.805 57.9722H155.469C158.73 57.9722 160.531 56.2254 160.531 53.043V35.4946C161.082 32.9446 162.492 32.5431 163.443 32.4728H175.159C177.18 32.4929 178.06 33.3663 178.08 35.3942V53.043C178.08 56.2153 179.821 57.9722 182.993 57.9722C186.164 57.9722 187.905 56.2254 187.905 53.043V29.5012C187.905 25.345 185.884 22.9958 182.042 22.6545L182.022 22.6645ZM172.207 13.8201V21.6606C172.207 22.4136 171.997 22.6144 171.257 22.6144L159.531 22.5742C158.78 22.5742 158.58 22.3634 158.58 21.6205V13.8201C158.58 11.752 159.421 10.8987 161.492 10.8987H169.306C171.367 10.8987 172.217 11.742 172.217 13.8201H172.207Z" stroke="black" stroke-width="2" stroke-miterlimit="10"/>
<path d="M230.327 1.05029H199.051C194.588 1.05029 192.217 3.42957 192.187 7.93714V25.5859C192.187 30.0935 194.558 32.4728 199.051 32.4728H218.591C219.041 32.4728 219.421 32.5431 219.541 33.4566V47.14C219.521 47.913 219.311 48.1439 218.591 48.1539L204.944 48.1138C202.883 48.1138 202.032 47.2705 202.032 45.1723L201.992 43.2347C201.992 40.0624 200.261 38.3055 197.12 38.3055C193.978 38.3055 192.167 40.0523 192.167 43.2347V51.0753C192.167 55.5829 194.538 57.9621 199.031 57.9621L230.347 58.0023C234.809 57.9722 237.16 55.5728 237.16 51.0753V29.5012C237.16 24.9936 234.789 22.6144 230.297 22.6144H204.894C202.833 22.6144 201.982 21.7711 201.982 19.703L202.022 13.8201C202.042 11.7721 202.903 10.8886 204.894 10.8886H224.434C226.495 10.8886 227.345 11.7319 227.345 13.81V15.7677C227.345 18.94 229.086 20.6969 232.258 20.6969C235.429 20.6969 237.17 18.9501 237.17 15.7677V7.93714C237.17 3.45969 234.799 1.08041 230.317 1.05029H230.327Z" stroke="black" stroke-width="2" stroke-miterlimit="10"/>
<path d="M254.259 10.8986H273.799C276.96 10.8986 278.711 9.15178 278.711 5.95933C278.681 2.78697 276.92 1.04016 273.769 1.04016L248.406 1C243.894 1 241.502 3.39935 241.502 7.927V53.073C241.502 56.2253 243.263 57.9621 246.455 57.9621H273.769C276.96 57.9621 278.721 56.2152 278.721 53.0228C278.691 49.8504 276.93 48.1036 273.769 48.1036H260.112C259.382 48.0936 259.181 47.8828 259.181 47.1499V33.4866C259.201 32.6132 259.482 32.4727 260.102 32.4727L273.779 32.4325C276.971 32.4325 278.731 30.6958 278.731 27.5334C278.701 24.3611 276.94 22.6143 273.779 22.6143H252.318C251.568 22.6143 251.337 22.3934 251.327 21.6605V13.82C251.327 11.8021 252.208 10.9287 254.279 10.8986H254.259Z" stroke="black" stroke-width="2" stroke-miterlimit="10"/>
<path d="M295.75 10.8986H315.29C318.452 10.8986 320.203 9.15178 320.203 5.95933C320.173 2.78697 318.412 1.04016 315.26 1.04016L289.897 1C285.385 1 282.994 3.39935 282.994 7.927V53.073C282.994 56.2253 284.755 57.9621 287.946 57.9621H315.26C318.452 57.9621 320.213 56.2152 320.213 53.0228C320.183 49.8504 318.422 48.1036 315.26 48.1036H301.603C300.873 48.0936 300.673 47.8828 300.673 47.1499V33.4866C300.693 32.6132 300.973 32.4727 301.593 32.4727L315.27 32.4325C318.462 32.4325 320.223 30.6958 320.223 27.5334C320.193 24.3611 318.432 22.6143 315.27 22.6143H293.809C293.059 22.6143 292.829 22.3934 292.819 21.6605V13.82C292.819 11.8021 293.699 10.9287 295.77 10.8986H295.75Z" stroke="black" stroke-width="2" stroke-miterlimit="10"/>
<path d="M362.594 1.05029H329.377C326.215 1.05029 324.465 2.7971 324.465 5.97951V53.0731C324.465 56.2254 326.226 57.9621 329.417 57.9621H362.594C367.086 57.9621 369.458 55.5829 369.458 51.0753V7.93714C369.458 3.42957 367.086 1.05029 362.594 1.05029V1.05029ZM335.28 22.6144C334.53 22.6144 334.3 22.3935 334.29 21.6606V11.8524C334.29 11.1195 334.5 10.9087 335.24 10.8987H356.731C358.792 10.8987 359.643 11.742 359.643 13.8201V45.1924C359.643 47.2604 358.802 48.1138 356.731 48.1138H343.054C342.304 48.1138 342.104 47.9029 342.104 47.16V29.5012C342.104 24.9936 339.742 22.6144 335.28 22.6144Z" stroke="black" stroke-width="2" stroke-miterlimit="10"/>
<path d="M384.535 22.6144C383.785 22.6144 383.585 22.4035 383.585 21.6606V5.97951C383.585 2.80714 381.844 1.05029 378.672 1.05029C375.501 1.05029 373.76 2.7971 373.76 5.97951V53.0329C373.76 56.2053 375.501 57.9621 378.672 57.9621H386.486C389.648 57.9621 391.399 56.2153 391.399 53.0329V29.5012C391.399 24.9936 389.028 22.6144 384.535 22.6144Z" stroke="black" stroke-width="2" stroke-miterlimit="10"/>
<path d="M433.83 1.05041L402.604 1.01025C398.092 1.01025 395.701 3.40961 395.701 7.93726V53.0732C395.701 56.2255 397.462 57.9623 400.643 57.9623H408.377C411.569 57.9623 413.33 56.2155 413.33 53.0331V29.5013C413.33 24.9937 410.969 22.6145 406.506 22.6145C405.756 22.6145 405.526 22.3936 405.516 21.6608V13.8202C405.516 11.7923 406.396 10.9189 408.467 10.8988H427.967C430.028 10.8988 430.879 11.7421 430.879 13.8202V53.0331C430.879 56.2054 432.62 57.9623 435.791 57.9623C438.963 57.9623 440.704 56.2155 440.704 53.0331V7.93726C440.704 3.42969 438.333 1.05041 433.84 1.05041H433.83Z" stroke="black" stroke-width="2" stroke-miterlimit="10"/>
<path d="M457.733 10.8987H477.273C479.264 10.8987 480.124 11.7721 480.144 13.8402L480.184 15.7375C480.184 18.94 481.925 20.7069 485.097 20.7069C488.268 20.7069 490.009 18.9601 490.009 15.7777V7.9271C489.979 3.42957 487.608 1.05029 483.146 1.05029H451.87C447.387 1.08041 445.016 3.45969 445.016 7.93714V51.0753C445.016 55.5728 447.377 57.9722 451.84 58.0023L483.146 57.9621C487.638 57.9621 490.009 55.5829 490.009 51.0753V29.5012C490.009 24.9936 487.638 22.6144 483.146 22.6144H477.283C474.121 22.6144 472.37 24.3612 472.37 27.5436C472.37 30.726 474.111 32.4728 477.283 32.4728C479.344 32.4728 480.194 33.3161 480.194 35.3942V43.2147L480.154 45.1924C480.154 47.2604 479.314 48.1138 477.243 48.1138L463.626 48.1539C462.885 48.1439 462.665 47.913 462.655 47.16L462.695 29.4711C462.695 25.0237 460.324 22.6545 455.832 22.6244C455.051 22.6244 454.841 22.4136 454.841 21.6707V13.8301C454.841 11.7621 455.682 10.9087 457.753 10.9087L457.733 10.8987Z" stroke="black" stroke-width="2" stroke-miterlimit="10"/>
</g>
<defs>
<clipPath id="clip0_3830_430812">
<rect width="491" height="59" fill="white"/>
</clipPath>
</defs>
</svg>
